<svg width="80" height="80" viewBox="0 0 80 80" fill="none" xmlns="http://www.w3.org/2000/svg">
<path d="M60.7035 55.2291L49.1993 61.1382C48.2031 60.1345 46.8237 59.5119 45.3012 59.5119H37.3738C37.0212 59.5119 36.8921 59.4902 36.8534 59.481C36.7815 59.4322 36.6023 59.2636 36.457 59.1268L36.3812 59.0554C29.9287 52.9791 24.4763 53.3645 18.2754 55.8119C17.305 56.1947 17.2865 56.1955 16.3247 56.2394L14.5784 56.2416C14.0332 54.6965 12.5605 53.5859 10.8329 53.5859H5.00009C2.8102 53.5859 1.02856 55.3696 1.02856 57.562V72.8592C1.02856 75.0492 2.8102 76.8309 5.00009 76.8309H10.8328C12.5605 76.8309 14.0332 75.7216 14.5784 74.178H17.7859C18.149 74.2094 18.503 74.2833 18.8482 74.3996L33.9313 78.4328C34.5918 78.6119 35.1981 78.7881 35.7847 78.9586C37.7326 79.5246 39.37 80.0004 41.0772 80.0002C43.006 80.0002 45.0239 79.3929 47.6785 77.6222C47.6918 77.6133 47.7049 77.6044 47.7178 77.5952L66.3151 64.3521C68.7596 62.608 69.4723 59.4599 67.972 57.0281C66.4891 54.6306 63.3633 53.8576 60.7035 55.2291ZM11.6795 72.8594C11.6795 73.3184 11.2917 73.7062 10.8328 73.7062H5.00009C4.54105 73.7062 4.15341 73.3184 4.15341 72.8594V57.5621C4.15341 57.1008 4.54121 56.7109 5.00009 56.7109H10.8328C11.2918 56.7109 11.6795 57.1008 11.6795 57.5621V72.8594ZM64.5011 61.8077L45.9247 75.036C42.1436 77.5526 40.5344 77.0848 36.6562 75.958C36.0565 75.7837 35.4364 75.6036 34.7436 75.4156L19.6564 71.3813C19.0494 71.193 18.4257 71.0837 17.7856 71.0533H14.8043V59.3681L16.4669 59.3611C17.656 59.3069 18.0248 59.27 19.4222 58.7188C24.7969 56.5974 28.9445 56.3447 34.2402 61.3316L34.3151 61.402C35.2269 62.2605 35.7919 62.6366 37.3738 62.6366H45.3012C46.6082 62.6366 47.6714 63.7 47.6714 65.0069C47.6714 66.3116 46.6082 67.3729 45.3012 67.3729H32.4492C31.5863 67.3729 30.8868 68.0724 30.8868 68.9353C30.8868 69.7983 31.5863 70.4978 32.4492 70.4978H45.3012C48.3313 70.4978 50.7963 68.0346 50.7963 65.0069C50.7963 64.6241 50.7566 64.2504 50.6818 63.8895L62.1331 58.0074C63.1769 57.4695 64.6048 57.5247 65.3132 58.6704C65.9379 59.683 65.5882 61.0321 64.5011 61.8077Z" fill="url(#paint0_linear)"/>
<path d="M36.9928 36.9558C35.3015 37.7797 34.1329 39.5162 34.1329 41.5206C34.1329 43.7307 35.556 45.6137 37.5342 46.3062V48.6332C37.5342 51.4826 39.8503 53.8008 42.6971 53.8008H49.6191C52.4683 53.8008 54.7865 51.4826 54.7865 48.6332V46.3062C56.7646 45.6137 58.1877 43.7305 58.1877 41.5206C58.1877 39.516 57.0192 37.7795 55.3277 36.9557C56.0119 34.4139 57.3988 32.5214 58.8575 30.5361C61.1015 27.4822 63.6448 24.0208 63.6393 17.9238C63.6393 17.3794 63.6168 16.8207 63.5724 16.2631C63.504 15.4028 62.7529 14.763 61.891 14.8294C61.0308 14.8978 60.389 15.6506 60.4574 16.5109C60.4952 16.9863 60.5145 17.4616 60.5145 17.925C60.519 22.9973 58.4888 25.7604 56.3392 28.6858C54.7082 30.9055 53.0297 33.1937 52.2299 36.4459H40.0901C39.2903 33.194 37.6114 30.906 35.98 28.6864C33.8298 25.7611 31.799 22.9979 31.8057 17.9255C31.8126 12.5169 34.1298 9.10109 36.0727 7.18806C38.7479 4.55381 42.4122 3.07326 46.138 3.12576C46.153 3.12592 46.1678 3.12592 46.1828 3.12576C49.2185 3.07967 52.263 4.06915 54.7485 5.90672C55.4421 6.41966 56.4208 6.27295 56.9337 5.57923C57.4466 4.88536 57.3001 3.90697 56.6062 3.39403C53.58 1.15695 49.8711 -0.0465861 46.16 0.00138035C41.6151 -0.0540857 37.1417 1.75067 33.8805 4.96208C30.4856 8.30504 28.6877 12.7865 28.6812 17.9219C28.673 24.0215 31.2176 27.4833 33.4625 30.5375C34.9213 32.5223 36.3086 34.4145 36.9928 36.9558ZM51.6618 48.6334C51.6618 49.7597 50.7456 50.6761 49.6192 50.6761H42.6972C41.5734 50.6761 40.6592 49.7597 40.6592 48.6334V46.5908H51.6618V48.6334ZM39.2074 39.571H53.1134C54.1884 39.571 55.063 40.4457 55.063 41.5206C55.063 42.5932 54.1885 43.4658 53.1134 43.4658H39.2074C38.1324 43.4658 37.2578 42.5932 37.2578 41.5206C37.2578 40.4457 38.1324 39.571 39.2074 39.571Z" fill="url(#paint1_linear)"/>
<path d="M47.7227 11.414C47.7227 10.5511 47.0233 9.85156 46.1603 9.85156C45.2974 9.85156 44.5979 10.5511 44.5979 11.414V21.1043C44.5979 21.9672 45.2974 22.6667 46.1603 22.6667C47.0233 22.6667 47.7227 21.9672 47.7227 21.1043V11.414Z" fill="url(#paint2_linear)"/>
<path d="M46.1604 26.6094C45.2974 26.6094 44.5979 27.3089 44.5979 28.1719V28.1808C44.5979 29.0437 45.2974 29.7389 46.1604 29.7389C47.0234 29.7389 47.7229 29.035 47.7229 28.172C47.7229 27.3091 47.0234 26.6094 46.1604 26.6094Z" fill="url(#paint3_linear)"/>
<path d="M77.4093 17.9121H71.063C70.2001 17.9121 69.5006 18.6116 69.5006 19.4745C69.5006 20.3375 70.2001 21.037 71.063 21.037H77.4093C78.2722 21.037 78.9717 20.3375 78.9717 19.4745C78.9717 18.6116 78.2722 17.9121 77.4093 17.9121Z" fill="url(#paint4_linear)"/>
<path d="M68.4382 7.84684C68.7375 7.84684 69.0402 7.7609 69.3074 7.58154L74.573 4.04733C75.2895 3.56642 75.4805 2.59584 74.9996 1.87931C74.5188 1.16294 73.5482 0.971859 72.8315 1.45277L67.5659 4.98698C66.8493 5.46789 66.6584 6.43862 67.1393 7.15499C67.441 7.60419 67.9349 7.84684 68.4382 7.84684Z" fill="url(#paint5_linear)"/>
<path d="M74.5731 34.901L69.3074 31.3668C68.5909 30.8859 67.6202 31.077 67.1394 31.7934C66.6585 32.5097 66.8496 33.4805 67.566 33.9614L72.8316 37.4956C73.0988 37.675 73.4014 37.7609 73.7008 37.7609C74.2041 37.7609 74.6981 37.5183 74.9996 37.0691C75.4806 36.3525 75.2896 35.3818 74.5731 34.901Z" fill="url(#paint6_linear)"/>
<path d="M14.9114 21.037H21.2533C22.1162 21.037 22.8157 20.3375 22.8157 19.4745C22.8157 18.6116 22.1162 17.9121 21.2533 17.9121H14.9114C14.0485 17.9121 13.349 18.6116 13.349 19.4745C13.349 20.3375 14.0485 21.037 14.9114 21.037Z" fill="url(#paint7_linear)"/>
<path d="M17.7476 4.04733L23.0133 7.58154C23.2805 7.7609 23.5831 7.84684 23.8825 7.84684C24.3858 7.84684 24.8798 7.60419 25.1813 7.15499C25.6623 6.43862 25.4712 5.46789 24.7548 4.98698L19.4891 1.45277C18.7726 0.971859 17.802 1.16294 17.3211 1.87931C16.8402 2.59569 17.0311 3.56642 17.7476 4.04733Z" fill="url(#paint8_linear)"/>
<path d="M23.0133 31.3668L17.7476 34.901C17.0311 35.382 16.8402 36.3527 17.3211 37.0691C17.6226 37.5183 18.1165 37.7609 18.6199 37.7609C18.9193 37.7609 19.2219 37.675 19.4891 37.4956L24.7548 33.9614C25.4713 33.4805 25.6623 32.5097 25.1813 31.7934C24.7004 31.077 23.7297 30.8859 23.0133 31.3668Z" fill="url(#paint9_linear)"/>
<path d="M58.975 10.8183C59.2797 11.1228 59.6779 11.2749 60.0765 11.2749C60.4765 11.2749 60.8769 11.1218 61.1825 10.8161C61.7926 10.206 61.7904 9.21441 61.1803 8.6041C60.5701 7.99395 59.5808 7.99395 58.9704 8.6041C58.3603 9.21426 58.3603 10.2036 58.9704 10.8139L58.975 10.8183Z" fill="url(#paint10_linear)"/>
<defs>
<linearGradient id="paint0_linear" x1="-11.6172" y1="53.5859" x2="51.6092" y2="102.796" gradientUnits="userSpaceOnUse">
<stop stop-color="#4BD8B5"/>
<stop offset="1" stop-color="#49D6DF"/>
</linearGradient>
<linearGradient id="paint1_linear" x1="22.1538" y1="-2.82846e-07" x2="72.597" y2="9.94958" gradientUnits="userSpaceOnUse">
<stop stop-color="#4BD8B5"/>
<stop offset="1" stop-color="#49D6DF"/>
</linearGradient>
<linearGradient id="paint2_linear" x1="44.0144" y1="9.85156" x2="48.6734" y2="10.1964" gradientUnits="userSpaceOnUse">
<stop stop-color="#4BD8B5"/>
<stop offset="1" stop-color="#49D6DF"/>
</linearGradient>
<linearGradient id="paint3_linear" x1="44.0144" y1="26.6094" x2="48.3049" y2="27.9099" gradientUnits="userSpaceOnUse">
<stop stop-color="#4BD8B5"/>
<stop offset="1" stop-color="#49D6DF"/>
</linearGradient>
<linearGradient id="paint4_linear" x1="67.7322" y1="17.9121" x2="75.4214" y2="24.9866" gradientUnits="userSpaceOnUse">
<stop stop-color="#4BD8B5"/>
<stop offset="1" stop-color="#49D6DF"/>
</linearGradient>
<linearGradient id="paint5_linear" x1="65.3073" y1="1.1875" x2="76.2806" y2="5.38466" gradientUnits="userSpaceOnUse">
<stop stop-color="#4BD8B5"/>
<stop offset="1" stop-color="#49D6DF"/>
</linearGradient>
<linearGradient id="paint6_linear" x1="65.3074" y1="31.1016" x2="76.2807" y2="35.2987" gradientUnits="userSpaceOnUse">
<stop stop-color="#4BD8B5"/>
<stop offset="1" stop-color="#49D6DF"/>
</linearGradient>
<linearGradient id="paint7_linear" x1="11.5814" y1="17.9121" x2="19.2703" y2="24.983" gradientUnits="userSpaceOnUse">
<stop stop-color="#4BD8B5"/>
<stop offset="1" stop-color="#49D6DF"/>
</linearGradient>
<linearGradient id="paint8_linear" x1="15.4891" y1="1.1875" x2="26.4624" y2="5.38465" gradientUnits="userSpaceOnUse">
<stop stop-color="#4BD8B5"/>
<stop offset="1" stop-color="#49D6DF"/>
</linearGradient>
<linearGradient id="paint9_linear" x1="15.4891" y1="31.1016" x2="26.4624" y2="35.2987" gradientUnits="userSpaceOnUse">
<stop stop-color="#4BD8B5"/>
<stop offset="1" stop-color="#49D6DF"/>
</linearGradient>
<linearGradient id="paint10_linear" x1="57.9291" y1="8.14648" x2="62.2207" y2="9.4483" gradientUnits="userSpaceOnUse">
<stop stop-color="#4BD8B5"/>
<stop offset="1" stop-color="#49D6DF"/>
</linearGradient>
</defs>
</svg>
