<svg width="70" height="57" viewBox="0 0 70 57" fill="none" xmlns="http://www.w3.org/2000/svg">
<g clip-path="url(#clip0)">
<path d="M2.25669 48.2315C2.25669 48.8425 1.76133 49.3379 1.15032 49.3379C0.539305 49.3379 0.0439453 48.8425 0.0439453 48.2315C0.0439453 47.6205 0.539305 47.1251 1.15032 47.1251C1.76133 47.1251 2.25669 47.6205 2.25669 48.2315ZM41.0298 30.1017C39.4871 31.2606 37.6519 31.873 35.7224 31.873C35.1001 31.873 34.525 31.6665 34.0623 31.3183C33.5996 31.6665 33.0246 31.873 32.4023 31.873C30.3979 31.873 28.5059 31.2169 26.9309 29.9757C26.4509 29.5973 26.3684 28.9015 26.7467 28.4214C27.1249 27.9415 27.8207 27.8588 28.3008 28.2372C29.4817 29.1678 30.8998 29.6596 32.4023 29.6596C32.7074 29.6596 32.9556 29.4114 32.9556 29.1063V27.3061C31.0485 26.8134 29.6355 25.0783 29.6355 23.0194C29.6355 21.7989 30.6284 20.806 31.8489 20.806H36.2757C37.4962 20.806 38.4891 21.7989 38.4891 23.0194C38.4891 25.0783 37.0762 26.8134 35.169 27.3061V29.1063C35.169 29.4114 35.4172 29.6596 35.7224 29.6596C37.1686 29.6596 38.5442 29.2006 39.7004 28.3321C40.1891 27.9648 40.8829 28.0635 41.2499 28.5522C41.617 29.041 41.5185 29.7348 41.0298 30.1017ZM34.0623 25.2328C35.2828 25.2328 36.2757 24.2399 36.2757 23.0194H31.8489C31.8489 24.2399 32.8418 25.2328 34.0623 25.2328ZM30.2433 16.8136L28.6067 19.6482C27.0258 22.2518 24.027 22.5838 21.9963 21.4194C19.9846 20.2659 19.2975 17.6829 20.457 15.6747L21.9829 13.0317C23.3474 10.6682 26.3807 9.85529 28.7445 11.22C30.6998 12.3489 31.3721 14.8581 30.2433 16.8136ZM26.6899 18.5415L27.368 17.3669H26.5084C25.0348 17.3669 25.0348 15.1535 26.5084 15.1535H28.5371C28.6994 14.379 28.3659 13.5417 27.6377 13.1368C26.2975 12.3915 24.6624 12.827 23.8996 14.1385L22.3737 16.7814C21.8245 17.7327 22.1549 18.9477 23.1029 19.5026C24.6161 20.3883 26.2065 19.4672 26.6899 18.5415ZM46.1282 21.4194C43.9476 22.6588 41.0166 22.1555 39.5178 19.6482L37.8812 16.8136C36.7523 14.8581 37.4247 12.3489 39.38 11.22C41.7439 9.85529 44.7771 10.6682 46.1416 13.0317L47.6675 15.6747C48.827 17.6829 48.1443 20.2736 46.1282 21.4194ZM45.7507 16.7814L44.2248 14.1385C43.4704 12.8318 41.7935 12.3824 40.4867 13.1368C39.7651 13.5533 39.4249 14.379 39.5873 15.1535H41.616C43.0896 15.1535 43.0896 17.3669 41.616 17.3669H40.7564L41.4345 18.5415C41.9875 19.5423 43.5262 20.3455 45.0214 19.5026C45.9785 18.9632 46.3 17.7326 45.7507 16.7814ZM52.821 15.7317C54.8663 20.0136 54.6872 24.9307 52.2801 29.1C51.8048 29.923 51.2603 30.6848 50.6571 31.3814C52.5541 38.375 52.6881 45.7639 51.0393 52.7922C50.5659 54.8108 48.7923 56.2205 46.7262 56.2205H44.2949C40.6438 56.2205 37.0732 55.3897 33.8393 53.8251C33.0008 54.911 31.404 56.2205 29.0202 56.2205H8.22967C6.07702 56.2205 3.77442 55.3404 2.13727 53.4991C1.73211 53.0434 1.77372 52.3492 2.22249 51.9364C2.69981 51.4973 3.4102 51.6026 3.78515 52.0216C4.91609 53.2853 6.53973 54.0071 8.23188 54.0071H10.4924C8.52283 51.3832 7.76142 47.9596 8.60074 44.7162C10.0445 39.1371 14.6117 36.8598 17.9082 36.3865C16.3576 33.1758 15.1988 29.7752 14.4766 26.2614C8.10771 29.9337 3.80441 36.1236 2.58327 43.4524C2.49363 43.9892 1.99296 44.4609 1.30946 44.3632C0.734859 44.281 0.293507 43.7135 0.39975 43.0893C2.2351 32.3069 9.41528 26.4556 14.0484 23.9619C13.6397 21.1912 14.0559 18.3435 15.3035 15.7317C13.2117 14.1404 11.948 11.6395 11.948 8.98011C11.948 4.30585 15.7507 0.502996 20.425 0.502996C22.3066 0.502996 24.1086 1.1212 25.5846 2.25712C28.1001 0.796162 31.0007 0 34.0623 0C37.124 0 40.0247 0.796051 42.54 2.25712C44.016 1.12131 45.818 0.503107 47.6995 0.503107C52.3738 0.503107 56.1765 4.30585 56.1765 8.98022C56.1765 11.6394 54.9128 14.1404 52.821 15.7317ZM16.3857 13.7631L19.4667 8.42676C20.5656 6.52334 21.9797 4.89826 23.6228 3.59623C22.6628 3.02395 21.5639 2.7164 20.4252 2.7164C16.9714 2.7164 14.1616 5.52632 14.1616 8.98011C14.1615 10.8338 14.9932 12.5833 16.3857 13.7631ZM31.8569 52.7473C30.6811 52.0348 29.5616 51.2196 28.5137 50.3047C24.661 46.9404 21.454 42.9389 19.0129 38.5216C15.1145 38.6641 11.696 41.4112 10.7496 45.2464C9.96088 48.4425 11.0349 51.8382 13.4899 54.0071H29.0212C30.1237 54.0071 31.1426 53.541 31.8569 52.7473ZM44.2949 54.0071C45.2275 54.0071 45.5726 53.0492 45.3065 52.4492C42.5875 46.3173 38.6473 40.8609 33.6599 36.2998H28.3149C24.652 36.2998 21.2595 34.9657 18.663 32.6054C21.0777 38.7274 24.9473 44.2519 29.9697 48.6376C33.935 52.1002 39.0224 54.0071 44.2949 54.0071ZM48.8245 33.1515C46.3214 35.1704 43.1799 36.2998 39.8096 36.2998H36.8609C37.9841 37.4251 39.0495 38.596 40.0558 39.811C40.084 39.655 40.1133 39.4994 40.1445 39.3443C40.2654 38.7451 40.8493 38.3572 41.4481 38.4782C42.0473 38.599 42.4351 39.1826 42.3142 39.7817C42.1488 40.6022 42.0331 41.4349 41.9633 42.2635C44.0649 45.1454 45.8583 48.2471 47.3285 51.5489C47.6612 52.2962 47.7025 53.1217 47.4669 53.8802C48.163 53.6336 48.7063 53.0459 48.8844 52.2867C50.3563 46.0127 50.3307 39.4355 48.8245 33.1515ZM50.3633 15.8071L46.7411 9.53346C44.0947 4.94995 39.355 2.2134 34.0623 2.2134C28.7696 2.2134 24.0298 4.94995 21.3835 9.53358L17.7614 15.8072C15.5586 19.6226 15.5586 24.1782 17.7614 27.9935C19.9641 31.8086 23.9093 34.0864 28.3149 34.0864H39.8096C44.2152 34.0864 48.1605 31.8086 50.3631 27.9933C52.5659 24.1781 52.5659 19.6225 50.3633 15.8071ZM53.9631 8.98022C53.9631 5.52643 51.1533 2.71651 47.6995 2.71651C46.561 2.71651 45.462 3.02406 44.5021 3.59623C46.1451 4.89826 47.559 6.52323 48.6579 8.42676L51.7389 13.7631C53.1313 12.5834 53.9631 10.8338 53.9631 8.98022Z" fill="url(#paint0_linear)"/>
<g clip-path="url(#clip1)">
<path d="M60.656 35.6347C60.8368 35.682 60.9934 35.5679 61.0037 35.3813C61.0037 35.3813 61.1326 33.0709 61.1922 32.4334C61.2425 31.8967 61.5876 29.1765 61.5876 29.1765C61.6112 28.9911 61.4778 28.8508 61.2916 28.8647C61.2916 28.8647 60.6024 28.9163 60.264 28.8846C59.9241 28.8527 59.2526 28.6732 59.2526 28.6732C59.0721 28.625 58.915 28.7381 58.9037 28.9247C58.9037 28.9247 58.7396 31.6293 58.6902 32.1553C58.6293 32.8035 58.323 35.1297 58.323 35.1297C58.2986 35.3151 58.4309 35.4542 58.6172 35.439C58.6172 35.439 59.2539 35.387 59.5755 35.4149C59.933 35.446 60.656 35.6347 60.656 35.6347Z" fill="url(#paint1_linear)"/>
<path d="M59.9248 43.4238C60.1057 43.471 60.2622 43.357 60.2726 43.1704C60.2726 43.1704 60.4013 40.8599 60.461 40.2225C60.5113 39.6858 60.8564 36.9656 60.8564 36.9656C60.88 36.7801 60.7467 36.6398 60.5604 36.6538C60.5604 36.6538 59.8712 36.7054 59.5329 36.6737C59.193 36.6418 58.5214 36.4623 58.5214 36.4623C58.3409 36.4141 58.1838 36.5271 58.1725 36.7137C58.1725 36.7137 58.0084 39.4184 57.959 39.9444C57.8981 40.5926 57.5917 42.9189 57.5917 42.9189C57.5675 43.1043 57.6998 43.2432 57.886 43.2282C57.886 43.2282 58.5228 43.176 58.8442 43.2041C59.2018 43.2351 59.9248 43.4238 59.9248 43.4238Z" fill="url(#paint2_linear)"/>
<path d="M59.1937 51.2148C59.3746 51.2619 59.531 51.148 59.5414 50.9614C59.5414 50.9614 59.6702 48.6509 59.7298 48.0135C59.7802 47.4769 60.1252 44.7566 60.1252 44.7566C60.1488 44.5712 60.0155 44.4309 59.8292 44.4448C59.8292 44.4448 59.1401 44.4963 58.8017 44.4647C58.4617 44.4328 57.7903 44.2533 57.7903 44.2533C57.6097 44.205 57.4527 44.3182 57.4413 44.5048C57.4413 44.5048 57.2773 47.2094 57.2279 47.7354C57.167 48.3835 56.8605 50.7098 56.8605 50.7098C56.8362 50.8953 56.9687 51.0343 57.1549 51.0191C57.1549 51.0191 57.7917 50.967 58.1131 50.995C58.4706 51.0261 59.1937 51.2148 59.1937 51.2148Z" fill="url(#paint3_linear)"/>
<path d="M64.1455 39.0059C63.0498 39.9987 61.6727 40.3768 61.5264 40.2489C61.3776 40.119 61.7797 38.8893 62.8755 37.8965C63.9713 36.9037 65.346 36.5236 65.4946 36.6535C65.6537 36.7926 65.2412 38.0131 64.1455 39.0059Z" fill="url(#paint4_linear)"/>
<path d="M64.3972 41.7653C63.2267 41.8286 62.2363 41.2717 62.2238 41.0895C62.211 40.9045 63.1187 40.2479 64.2893 40.1847C65.46 40.1214 66.4501 40.6754 66.4628 40.8604C66.4763 41.0585 65.5679 41.702 64.3972 41.7653Z" fill="url(#paint5_linear)"/>
<path d="M62.089 43.3814C61.5698 42.5561 61.5552 41.6852 61.677 41.6245C61.8004 41.563 62.6255 42.0306 63.1447 42.8557C63.6639 43.6808 63.6806 44.5509 63.5569 44.6125C63.4245 44.6784 62.6083 44.2065 62.089 43.3814Z" fill="url(#paint6_linear)"/>
<path d="M51.4913 42.4424C51.6735 42.4008 51.7596 42.2274 51.6827 42.0571C51.6827 42.0571 50.838 40.1867 50.6206 39.6521C50.4375 39.202 49.5932 36.9149 49.5932 36.9149C49.5285 36.7396 49.3455 36.6766 49.1866 36.775C49.1866 36.775 48.6856 37.0853 48.4018 37.2009C48.1168 37.3168 47.5379 37.4455 47.5379 37.4455C47.3554 37.486 47.2684 37.6588 47.3444 37.8295C47.3444 37.8295 48.325 40.0297 48.5045 40.4709C48.7255 41.0144 49.4369 42.9704 49.4369 42.9704C49.5008 43.146 49.6826 43.2083 49.8408 43.1088C49.8408 43.1088 50.2999 42.8201 50.5685 42.7087C50.8673 42.5849 51.4913 42.4424 51.4913 42.4424Z" fill="url(#paint7_linear)"/>
<path d="M54.1481 48.9757C54.3303 48.9341 54.4164 48.7606 54.3394 48.5903C54.3394 48.5903 53.4948 46.7199 53.2774 46.1852C53.0943 45.7351 52.25 43.4481 52.25 43.4481C52.1853 43.2728 52.0023 43.2099 51.8434 43.3081C51.8434 43.3081 51.3424 43.6183 51.0585 43.7341C50.7735 43.8501 50.1946 43.9787 50.1946 43.9787C50.0122 44.0194 49.9251 44.1922 50.0012 44.3628C50.0012 44.3628 50.9818 46.5629 51.1612 47.0041C51.3823 47.5475 52.0937 49.5035 52.0937 49.5035C52.1576 49.6791 52.3393 49.7414 52.4975 49.6419C52.4975 49.6419 52.9567 49.3532 53.2253 49.2418C53.5241 49.1182 54.1481 48.9757 54.1481 48.9757Z" fill="url(#paint8_linear)"/>
<path d="M56.8052 55.5069C56.9875 55.4654 57.0735 55.292 56.9965 55.1216C56.9965 55.1216 56.1519 53.2511 55.9346 52.7165C55.7515 52.2664 54.9072 49.9794 54.9072 49.9794C54.8424 49.8041 54.6594 49.7411 54.5006 49.8394C54.5006 49.8394 53.9996 50.1497 53.7157 50.2654C53.4307 50.3814 52.8518 50.51 52.8518 50.51C52.6693 50.5505 52.5823 50.7234 52.6584 50.894C52.6584 50.894 53.639 53.0943 53.8184 53.5353C54.0395 54.0788 54.751 56.0348 54.751 56.0348C54.8148 56.2105 54.9965 56.2728 55.1547 56.1733C55.1547 56.1733 55.6138 55.8845 55.8824 55.7732C56.1812 55.6495 56.8052 55.5069 56.8052 55.5069Z" fill="url(#paint9_linear)"/>
<path d="M47.2393 45.6504C48.1591 45.0848 49.2277 45.0316 49.3245 45.1533C49.4227 45.2764 48.9985 46.1387 48.0787 46.7043C47.159 47.2698 46.0918 47.325 45.9936 47.2014C45.8883 47.0694 46.3194 46.2161 47.2393 45.6504Z" fill="url(#paint10_linear)"/>
<path d="M48.0053 43.1077C48.7753 43.618 49.0605 44.4267 48.9589 44.5451C48.8557 44.6654 47.8939 44.645 47.1239 44.1348C46.3537 43.6246 46.067 42.8177 46.1702 42.6975C46.2807 42.5687 47.2352 42.5975 48.0053 43.1077Z" fill="url(#paint11_linear)"/>
</g>
</g>
<defs>
<linearGradient id="paint0_linear" x1="-10.4371" y1="-2.95567e-07" x2="66.6315" y2="23.3583" gradientUnits="userSpaceOnUse">
<stop stop-color="#4BD8B5"/>
<stop offset="1" stop-color="#49D6DF"/>
</linearGradient>
<linearGradient id="paint1_linear" x1="57.7095" y1="28.6621" x2="62.5147" y2="29.3452" gradientUnits="userSpaceOnUse">
<stop stop-color="#4BD8B5"/>
<stop offset="1" stop-color="#49D6DF"/>
</linearGradient>
<linearGradient id="paint2_linear" x1="56.9783" y1="36.4512" x2="61.7835" y2="37.1343" gradientUnits="userSpaceOnUse">
<stop stop-color="#4BD8B5"/>
<stop offset="1" stop-color="#49D6DF"/>
</linearGradient>
<linearGradient id="paint3_linear" x1="56.247" y1="44.2422" x2="61.0524" y2="44.9253" gradientUnits="userSpaceOnUse">
<stop stop-color="#4BD8B5"/>
<stop offset="1" stop-color="#49D6DF"/>
</linearGradient>
<linearGradient id="paint4_linear" x1="60.7439" y1="36.6289" x2="66.1744" y2="38.4524" gradientUnits="userSpaceOnUse">
<stop stop-color="#4BD8B5"/>
<stop offset="1" stop-color="#49D6DF"/>
</linearGradient>
<linearGradient id="paint5_linear" x1="61.4321" y1="40.1797" x2="65.273" y2="43.2872" gradientUnits="userSpaceOnUse">
<stop stop-color="#4BD8B5"/>
<stop offset="1" stop-color="#49D6DF"/>
</linearGradient>
<linearGradient id="paint6_linear" x1="61.2393" y1="41.6191" x2="64.1284" y2="42.2058" gradientUnits="userSpaceOnUse">
<stop stop-color="#4BD8B5"/>
<stop offset="1" stop-color="#49D6DF"/>
</linearGradient>
<linearGradient id="paint7_linear" x1="46.4965" y1="36.7285" x2="52.8115" y2="38.039" gradientUnits="userSpaceOnUse">
<stop stop-color="#4BD8B5"/>
<stop offset="1" stop-color="#49D6DF"/>
</linearGradient>
<linearGradient id="paint8_linear" x1="49.1532" y1="43.2617" x2="55.4683" y2="44.5722" gradientUnits="userSpaceOnUse">
<stop stop-color="#4BD8B5"/>
<stop offset="1" stop-color="#49D6DF"/>
</linearGradient>
<linearGradient id="paint9_linear" x1="51.8104" y1="49.793" x2="58.1254" y2="51.1034" gradientUnits="userSpaceOnUse">
<stop stop-color="#4BD8B5"/>
<stop offset="1" stop-color="#49D6DF"/>
</linearGradient>
<linearGradient id="paint10_linear" x1="45.3506" y1="45.0996" x2="49.4669" y2="47.0468" gradientUnits="userSpaceOnUse">
<stop stop-color="#4BD8B5"/>
<stop offset="1" stop-color="#49D6DF"/>
</linearGradient>
<linearGradient id="paint11_linear" x1="45.6217" y1="42.6328" x2="49.1871" y2="44.1844" gradientUnits="userSpaceOnUse">
<stop stop-color="#4BD8B5"/>
<stop offset="1" stop-color="#49D6DF"/>
</linearGradient>
<clipPath id="clip0">
<rect width="70" height="56.2205" fill="white"/>
</clipPath>
<clipPath id="clip1">
<rect width="27.559" height="27.559" fill="white" transform="translate(42.4409 28.6621)"/>
</clipPath>
</defs>
</svg>
