<svg width="65" height="53" viewBox="0 0 65 53" fill="none" xmlns="http://www.w3.org/2000/svg">
<path d="M61.7478 16.0282H55.5102L53.7594 2.81791C53.5087 1.04425 51.8799 -0.199298 50.1029 0.0264574L2.82387 6.29231C1.96706 6.40722 1.19115 6.85846 0.667682 7.54657C0.141914 8.23006 -0.0876347 9.09582 0.0302565 9.94992L4.01959 40.0358C4.23152 41.656 5.61275 42.8675 7.24683 42.8663C7.38681 42.866 7.52652 42.8565 7.66527 42.8381L10.7971 42.425V49.634C10.7971 51.4302 12.2531 52.8862 14.0493 52.8862H61.7478C63.544 52.8862 65 51.4302 65 49.634V19.2804C65 17.4843 63.544 16.0282 61.7478 16.0282ZM53.3236 16.0282H44.8582L53.1773 14.9257L53.3236 16.0282ZM2.17669 9.65723C2.13861 9.37429 2.21585 9.08782 2.39133 8.86261C2.56573 8.63076 2.82577 8.47845 3.11332 8.43983L50.3837 2.17614C50.9781 2.1008 51.5234 2.51545 51.6097 3.10843L52.0379 6.33676L2.60489 12.8921L2.17669 9.65723ZM10.7971 40.2385L7.38667 40.6884C6.79315 40.7672 6.24814 40.35 6.16928 39.7565C6.16928 39.7564 6.16928 39.7562 6.16928 39.7561L3.75074 21.481L10.7971 20.5498V40.2385ZM10.9402 18.3449L3.46022 19.3314L2.89108 15.0428L52.3241 8.48644L52.6493 10.9711L52.89 12.7761L28.3589 16.0282H14.0493C12.6156 16.0308 11.3527 16.9718 10.9402 18.3449ZM62.8319 49.634C62.8319 50.2327 62.3465 50.7181 61.7478 50.7181H14.0493C13.4506 50.7181 12.9652 50.2327 12.9652 49.634V19.3129C12.9652 19.3021 12.9707 19.2912 12.9707 19.2804C12.9707 18.6817 13.456 18.1964 14.0547 18.1964H61.7478C62.3465 18.1964 62.8319 18.6817 62.8319 19.2804V49.634Z" fill="url(#paint0_linear)"/>
<path d="M47.5965 32.3131C48.0322 31.9914 48.4175 31.6063 48.7391 31.1705C50.5214 33.5697 53.9112 34.0697 56.3104 32.2873C58.7095 30.5049 59.2096 27.1151 57.4271 24.7159C56.4044 23.3395 54.79 22.5291 53.0753 22.5316C51.3625 22.5363 49.7536 23.3533 48.7391 24.7333C46.9615 22.3246 43.568 21.8131 41.1592 23.5907C38.7505 25.3683 38.239 28.7618 40.0166 31.1705C41.7942 33.5791 45.1878 34.0907 47.5965 32.3131ZM53.0753 24.6997C54.8714 24.6997 56.3275 26.1557 56.3275 27.9518C56.3275 29.748 54.8714 31.204 53.0753 31.204C51.2791 31.204 49.8231 29.748 49.8231 27.9518C49.8231 26.1557 51.2791 24.6997 53.0753 24.6997ZM44.4028 24.6997C46.199 24.6997 47.655 26.1557 47.655 27.9518C47.655 29.748 46.199 31.204 44.4028 31.204C42.6067 31.204 41.1506 29.748 41.1506 27.9518C41.1506 26.1557 42.6067 24.6997 44.4028 24.6997Z" fill="url(#paint1_linear)"/>
<path d="M19.4698 23.6172H17.3016V25.7853H19.4698V23.6172Z" fill="url(#paint2_linear)"/>
<path d="M34.6463 23.6172H21.6376V25.7853H34.6463V23.6172Z" fill="url(#paint3_linear)"/>
<path d="M34.6466 27.9531H17.3016V30.1212H34.6466V27.9531Z" fill="url(#paint4_linear)"/>
<path d="M57.4118 37.709H18.3857C17.787 37.709 17.3016 38.1944 17.3016 38.793V45.2974C17.3016 45.8961 17.787 46.3814 18.3857 46.3814H57.4118C58.0104 46.3814 58.4958 45.8961 58.4958 45.2974V38.793C58.4958 38.1944 58.0106 37.709 57.4118 37.709ZM56.3277 44.2133H19.4698V39.8771H56.3277V44.2133Z" fill="url(#paint5_linear)"/>
<defs>
<linearGradient id="paint0_linear" x1="-12.1367" y1="-2.78038e-07" x2="73.3983" y2="31.9123" gradientUnits="userSpaceOnUse">
<stop stop-color="#4BD8B5"/>
<stop offset="1" stop-color="#49D6DF"/>
</linearGradient>
<linearGradient id="paint1_linear" x1="35.3091" y1="22.5312" x2="57.8517" y2="34.8636" gradientUnits="userSpaceOnUse">
<stop stop-color="#4BD8B5"/>
<stop offset="1" stop-color="#49D6DF"/>
</linearGradient>
<linearGradient id="paint2_linear" x1="16.8968" y1="23.6172" x2="19.8728" y2="24.5206" gradientUnits="userSpaceOnUse">
<stop stop-color="#4BD8B5"/>
<stop offset="1" stop-color="#49D6DF"/>
</linearGradient>
<linearGradient id="paint3_linear" x1="19.2086" y1="23.6172" x2="23.7256" y2="31.8442" gradientUnits="userSpaceOnUse">
<stop stop-color="#4BD8B5"/>
<stop offset="1" stop-color="#49D6DF"/>
</linearGradient>
<linearGradient id="paint4_linear" x1="14.063" y1="27.9531" x2="17.8328" y2="37.1079" gradientUnits="userSpaceOnUse">
<stop stop-color="#4BD8B5"/>
<stop offset="1" stop-color="#49D6DF"/>
</linearGradient>
<linearGradient id="paint5_linear" x1="9.60991" y1="37.709" x2="29.6659" y2="66.6278" gradientUnits="userSpaceOnUse">
<stop stop-color="#4BD8B5"/>
<stop offset="1" stop-color="#49D6DF"/>
</linearGradient>
</defs>
</svg>
