<svg width="68" height="68" viewBox="0 0 68 68" fill="none" xmlns="http://www.w3.org/2000/svg">
<circle cx="34" cy="34" r="33.5" stroke="#BDBDBD"/>
<g clip-path="url(#clip0)">
<path d="M45.2191 21.5602C45.2191 24.7371 44.0798 27.4869 41.8324 29.7347C39.585 31.9822 36.8347 33.1215 33.6578 33.1215H33.6523C30.4795 33.1204 27.7311 31.9811 25.4836 29.7347C23.2358 27.4869 22.0969 24.7371 22.0969 21.5602C22.0969 18.3844 23.2358 15.6342 25.4836 13.3867C27.73 11.14 30.4784 10.0011 33.6523 10H33.6578C36.8336 10 39.5839 11.1393 41.8324 13.3867C44.0798 15.6342 45.2191 18.3844 45.2191 21.5602Z" fill="#FFBB85"/>
<path d="M53.9845 49.7461C53.9845 52.2524 53.1873 54.2816 51.6169 55.7761C50.0649 57.2531 48.0123 58.0012 45.5166 58.0012H22.4043C19.9086 58.0012 17.856 57.2531 16.3051 55.7761C14.7336 54.2805 13.9375 52.2517 13.9375 49.7461C13.9375 48.7822 13.9694 47.8286 14.0331 46.9116C14.0979 45.9741 14.229 44.9539 14.4224 43.8776C14.6172 42.7925 14.8677 41.7667 15.1676 40.8292C15.4789 39.8588 15.9 38.9015 16.4211 37.9845C16.9624 37.0327 17.5981 36.2036 18.3108 35.521C19.0579 34.8065 19.9712 34.2327 21.027 33.8145C22.0791 33.3984 23.2455 33.1875 24.4935 33.1875C24.9832 33.1875 25.4574 33.3878 26.3715 33.9833C26.9435 34.3564 27.6027 34.7813 28.3303 35.2463C28.9587 35.647 29.8098 36.0227 30.8619 36.3622C31.7866 36.6614 32.7252 36.8284 33.6525 36.8573C33.7546 36.861 33.8568 36.8628 33.959 36.8628C34.9888 36.8628 36.0303 36.694 37.0571 36.3622C38.1093 36.0227 38.9614 35.647 39.5895 35.2463C40.3248 34.7765 40.984 34.3521 41.5476 33.9844C42.4624 33.3878 42.9359 33.1875 43.4266 33.1875C44.6736 33.1875 45.84 33.3984 46.8928 33.8145C47.9486 34.2327 48.8619 34.8076 49.6083 35.521C50.322 36.2036 50.9578 37.0327 51.4987 37.9845C52.0201 38.9022 52.442 39.8588 52.7522 40.8281C53.0525 41.7667 53.3037 42.7925 53.4985 43.8783C53.6908 44.9557 53.8223 45.976 53.8867 46.9109C53.9515 47.825 53.9834 48.7786 53.9845 49.7461Z" fill="#6AFFE4"/>
<path d="M33.6581 33.1215H33.6526V10H33.6581C36.8339 10 39.5841 11.1393 41.8326 13.3867C44.0801 15.6342 45.2194 18.3844 45.2194 21.5602C45.2194 24.7371 44.0801 27.4869 41.8326 29.7347C39.5852 31.9822 36.835 33.1215 33.6581 33.1215Z" fill="#F5A86C"/>
<path d="M53.9846 49.7461C53.9846 52.2524 53.1874 54.2816 51.6171 55.7761C50.0651 57.2531 48.0125 58.0012 45.5167 58.0012H33.6526V36.8573C33.7548 36.861 33.8569 36.8628 33.9591 36.8628C34.9889 36.8628 36.0304 36.694 37.0573 36.3622C38.1094 36.0227 38.9615 35.647 39.5896 35.2463C40.325 34.7765 40.9841 34.3521 41.5477 33.9844C42.4625 33.3878 42.936 33.1875 43.4268 33.1875C44.6737 33.1875 45.8401 33.3984 46.8929 33.8145C47.9487 34.2327 48.8621 34.8076 49.6084 35.521C50.3221 36.2036 50.9579 37.0327 51.4988 37.9845C52.0203 38.9022 52.4421 39.8588 52.7523 40.8281C53.0526 41.7667 53.3038 42.7925 53.4987 43.8783C53.6909 44.9557 53.8224 45.976 53.8868 46.9109C53.9517 47.825 53.9835 48.7786 53.9846 49.7461Z" fill="url(#paint0_linear)"/>
</g>
<defs>
<linearGradient id="paint0_linear" x1="29.8562" y1="33.1875" x2="58.56" y2="40.3271" gradientUnits="userSpaceOnUse">
<stop stop-color="#4BD8B5"/>
<stop offset="0.552083" stop-color="#4AD6D8"/>
<stop offset="0.65625" stop-color="#49D6DF"/>
<stop offset="0.989583" stop-color="#49D6DF"/>
</linearGradient>
<clipPath id="clip0">
<rect width="48" height="48" fill="white" transform="translate(10 10)"/>
</clipPath>
</defs>
</svg>
